<?xml version="1.0" encoding="UTF-8"?>
<svg id="Camada_2" data-name="Camada 2" xmlns="http://www.w3.org/2000/svg" viewBox="0 0 100.72 100.24">
  <path d="M69.69,32.59l-7.27,6.75c.28-.94,1.14-1.8,1.81-2.47,1.03-1.04,2.86-2.57,4.04-3.5.39-.31.91-.78,1.42-.78Z" style="fill: #bfcaa4;"/>
  <path d="M46.3,37.01l-6.75,6.23c.08-.57.68-1.24,1.04-1.68,1.47-1.76,3.57-3.66,5.71-4.55Z" style="fill: #bfcaa4;"/>
  <path d="M50.46,66.11c-.57-.59,4.88-5.85,5.71-6.24l-4.81,5.72-.91.52Z" style="fill: #bfcaa4;"/>
  <path d="M67.09,68.72c-2.09,2.48-4,5.18-6.49,7.27.62-1.51,2.11-3.19,3.24-4.42.67-.73,1.6-1.71,2.34-2.34.29-.25.42-.63.91-.52Z" style="fill: #bfcaa4;"/>
  <path d="M62.15,50.78c.21.2-3.12,3.82-3.5,4.16-.24.22-2.03,1.74-2.21,1.55-.11-.49.27-.62.52-.91.84-1.01,2.3-2.64,3.24-3.51.24-.22,1.75-1.49,1.96-1.29Z" style="fill: #bfcaa4;"/>
  <path d="M60.86,40.91c-1.79,2.37-4.05,4.25-6.23,6.23.53-1.95,2.75-3.64,4.29-4.93.26-.22,1.75-1.48,1.94-1.3Z" style="fill: #bfcaa4;"/>
  <path d="M43.7,75.99c-2.11,2.46-4.13,5.07-6.49,7.27-.09-.44.21-.69.42-1.01.67-1.08,2.93-3.79,3.86-4.72.22-.22,2.03-1.72,2.22-1.55Z" style="fill: #bfcaa4;"/>
  <path d="M61.12,43.25c.26.25-4.35,4.82-4.81,5.2-.29.24-.42.63-.91.52-.2-.2.6-1.19.79-1.42.55-.7,2-2.11,2.71-2.74.28-.25,1.98-1.78,2.22-1.55Z" style="fill: #bfcaa4;"/>
  <path d="M25.25,73.91c1.27-2.72,3.51-4.8,5.72-6.75-.08.59-.67,1.21-1.04,1.68-1,1.28-2.68,3.49-3.76,4.56-.28.27-.45.61-.91.51Z" style="fill: #bfcaa4;"/>
  <path d="M26.55,36.75c-.29.77-.95,1.66-1.45,2.32-.46.61-3.82,4.67-4.14,4.7-.22.02-.39-.25-.13-.64,1.4-2.15,3.94-4.5,5.71-6.37Z" style="fill: #bfcaa4;"/>
  <path d="M51.24,55.46c-1.5,1.86-2.95,3.92-4.81,5.46-.29.24-.42.63-.91.52-.06-.44.3-.76.54-1.09.61-.85,2.43-2.85,3.23-3.58.23-.21,1.77-1.48,1.95-1.31Z" style="fill: #bfcaa4;"/>
  <path d="M60.6,38.57c.35.29-4.89,4.83-5.33,5.2-.29.24-.42.63-.91.52-.11-.49.28-.62.52-.91.66-.8,1.81-1.9,2.6-2.6.41-.36,2.78-2.48,3.12-2.2Z" style="fill: #bfcaa4;"/>
  <path d="M58,49.48c-.63-.65,4.58-5.03,5.45-5.2.29.29-1.41,1.83-1.68,2.09-.83.78-2.01,1.88-2.87,2.59-.29.24-.42.63-.91.52Z" style="fill: #bfcaa4;"/>
  <path d="M27.85,77.03l2.72-3.64,2.99-2.6c.17.19-1.08,1.69-1.3,1.94-.74.86-1.69,1.92-2.46,2.74-.24.25-1.67,1.84-1.95,1.55Z" style="fill: #bfcaa4;"/>
  <path d="M41.62,67.93l4.28-4.68,1.17-.77c.11.51-.12.7-.38,1.05-.65.9-3.14,3.37-4.03,4.03-.35.26-.54.48-1.05.37Z" style="fill: #bfcaa4;"/>
  <path d="M45.52,55.72c-.11-.49.27-.62.52-.91,1.9-2.26,4.34-4.11,6.5-6.11.11.49-.27.62-.52.91-.44.53-6.19,6.44-6.5,6.11Z" style="fill: #bfcaa4;"/>
  <path d="M53.06,45.33l-7.27,7.27c0-.5.52-1.01.83-1.39,1.15-1.4,2.62-2.59,3.84-3.94l2.6-1.94Z" style="fill: #bfcaa4;"/>
  <path d="M50.72,80.93c.71-2.43,3.47-4.17,5.19-5.98-.33,1-1.25,2.07-1.94,2.86-.97,1.11-2.15,2.13-3.25,3.12Z" style="fill: #bfcaa4;"/>
  <path d="M75.41,51.3c.3.27-4.87,5.64-5.46,5.98-.14-.52.17-.71.38-1.05.66-1.11,3.11-3.52,4.17-4.41.29-.25.42-.63.91-.52Z" style="fill: #bfcaa4;"/>
  <path d="M74.89,41.43c-1.45,1.66-2.83,3.53-4.55,4.94-.22.18-.53.78-.78.26-.22-.45,3.08-3.69,3.63-4.17.25-.21,1.45-1.25,1.7-1.03Z" style="fill: #bfcaa4;"/>
  <path d="M74.37,30.77c.11.49-.28.62-.52.91-.62.76-1.84,1.96-2.6,2.6-.25.21-1.64,1.36-1.82,1.16-.04-.51.32-.95.65-1.3.58-.6,2.49-2.39,3.12-2.86.35-.25.69-.58,1.16-.52Z" style="fill: #bfcaa4;"/>
  <path d="M32.27,33.63c-.32-.29,5-6.19,5.72-6.49-.48,1.1-1.43,2.2-2.2,3.12-.62.75-1.92,2.27-2.6,2.86-.29.25-.43.63-.91.52Z" style="fill: #bfcaa4;"/>
  <path d="M55.14,66.37c-.11-.49.28-.62.52-.91.4-.48,5.45-5.62,5.72-5.33.11.49-.27.62-.52.91-1.13,1.35-3.46,3.69-4.81,4.81-.29.24-.42.63-.91.52Z" style="fill: #bfcaa4;"/>
  <path d="M27.59,54.68c-.2-.2.74-1.27.93-1.53.32-.43,3.65-4.55,4-4.18-.38.94-1.19,1.92-1.82,2.72-.45.56-1.19,1.45-1.68,1.96-.21.22-1.16,1.31-1.43,1.03Z" style="fill: #bfcaa4;"/>
  <path d="M68.13,16.48l-5.97,5.72c-.05-.94,1.04-1.73,1.68-2.35.77-.75,2.05-1.93,2.87-2.59.39-.31.91-.78,1.42-.78Z" style="fill: #bfcaa4;"/>
  <path d="M50.46,20.37c-.11-.49.27-.62.52-.91.42-.5,5.2-5.1,5.46-4.81.11.49-.27.62-.52.91-.37.45-5.21,5.08-5.46,4.81Z" style="fill: #bfcaa4;"/>
  <path d="M60.34,59.1c-.34-1.06,4.68-6,4.93-5.72-.12.62-.76,1.35-1.16,1.82-1.11,1.3-2.55,2.69-3.77,3.89Z" style="fill: #bfcaa4;"/>
  <path d="M52.54,51.56c.42.41-4.97,5.03-5.46,5.46.3-1.32,2.07-2.84,3.11-3.77.26-.23,2.16-1.86,2.34-1.68Z" style="fill: #bfcaa4;"/>
  <path d="M58.26,69.23c1.13-2.45,3.83-4.3,5.71-6.24-1.16,2.57-3.75,4.28-5.71,6.24Z" style="fill: #bfcaa4;"/>
  <path d="M25.77,40.12c1.49-2.33,3.33-4.46,5.46-6.23-.04.56-.59,1.08-.93,1.53-.79,1.06-1.93,2.46-2.83,3.41-.23.25-1.4,1.57-1.69,1.29Z" style="fill: #bfcaa4;"/>
  <path d="M20.57,41.17l-5.46,6.23c.26-1.34,1.76-2.88,2.72-3.9.32-.35,2.42-2.61,2.73-2.33Z" style="fill: #bfcaa4;"/>
  <path d="M46.19,67.83c-.4.42-.85,1.14-1.45,1.15-.42-.44,3.43-4.13,3.89-4.55.65-.59,1.44-1.08,2.08-1.69.11.49-.27.62-.52.91-1.2,1.43-2.71,2.82-4.01,4.18Z" style="fill: #bfcaa4;"/>
  <path d="M32.27,36.49c-.27.64-5.16,6.29-5.46,5.97.45-1.16,1.6-2.45,2.46-3.38.33-.36,2.68-2.87,2.99-2.59Z" style="fill: #bfcaa4;"/>
  <path d="M46.82,26.35c.32.28-4.71,5.34-5.46,5.46-.18-.2,1.06-1.73,1.28-1.96.81-.83,2.35-2.21,3.26-2.98.29-.25.42-.63.91-.52Z" style="fill: #bfcaa4;"/>
  <path d="M73.33,48.44c-.2-.23.7-1.32.9-1.56.33-.4,4.07-4.12,4.29-3.89l-2.2,2.86-2.99,2.6Z" style="fill: #bfcaa4;"/>
  <polygon points="76.45 26.35 73.33 29.6 70.47 31.81 73.07 28.82 76.45 26.35" style="fill: #bfcaa4;"/>
  <path d="M60.08,77.29c.22.21-3.95,4.13-4.29,4.42-.29.24-.42.63-.91.52l1.68-2.35,3.52-2.59Z" style="fill: #bfcaa4;"/>
  <path d="M67.1,57.54c-.11-.51.12-.7.38-1.05.35-.48,4.5-5.01,4.82-4.67.11.49-.27.62-.52.91-1.37,1.64-3.1,3.36-4.68,4.81Z" style="fill: #bfcaa4;"/>
  <path d="M15.64,55.98c-.06-.54.34-.92.64-1.3,1.33-1.69,3.21-3.46,4.81-4.93-.08.58-.67,1.23-1.04,1.68-1.32,1.63-2.82,3.19-4.41,4.55Z" style="fill: #bfcaa4;"/>
  <path d="M84.51,48.19c.26.25-3.62,4.07-4.03,4.42-.29.24-.42.63-.91.52l1.05-1.68,3.89-3.25Z" style="fill: #bfcaa4;"/>
  <path d="M48.9,79.11c-.6-.62,4.33-4.78,4.93-5.2l-2.2,2.86c-.38.25-2.38,2.69-2.73,2.33Z" style="fill: #bfcaa4;"/>
  <path d="M68.65,47.67l-2.97,3.39-2.48,1.8c-.25-.25,3.12-3.57,3.5-3.9.27-.23,1.74-1.49,1.96-1.29Z" style="fill: #bfcaa4;"/>
  <path d="M45.78,79.37l-4.68,5.2c-.07-1.38,1.36-2.01,1.94-3.12l2.74-2.07Z" style="fill: #bfcaa4;"/>
  <path d="M44.74,71.58c-1.16,1.38-2.27,3.13-3.5,4.42-.27.28-.46.61-.91.51-.23-.23,2.14-3.33,2.46-3.65.22-.22,1.76-1.47,1.96-1.29Z" style="fill: #bfcaa4;"/>
  <path d="M50.72,44.55c-.33.69-4.09,4.94-4.68,4.41.14-.76,4.23-4.82,4.68-4.41Z" style="fill: #bfcaa4;"/>
  <path d="M26.29,59.88c.43-2.17,2.91-3.71,4.41-5.2l-2.46,3.38-1.95,1.81Z" style="fill: #bfcaa4;"/>
  <path d="M68.39,76.77c-1.5,1.68-2.62,3.87-4.68,4.94-.32-.41,2.06-2.93,2.49-3.35.23-.22,1.98-1.78,2.18-1.58Z" style="fill: #bfcaa4;"/>
  <path d="M49.16,70.28c-1,1.14-1.95,2.55-2.99,3.64-.23.24-1.41,1.58-1.69,1.29l1.81-2.73,2.87-2.2Z" style="fill: #bfcaa4;"/>
  <path d="M43.96,26.09c-1.59,1.6-3.07,3.5-4.81,4.94-.29.24-.42.63-.91.52-.11-.49.28-.62.52-.91.79-.96,2.29-2.43,3.24-3.26.52-.46,1.27-1.14,1.96-1.29Z" style="fill: #bfcaa4;"/>
  <path d="M34.87,22.46c-1,1.14-1.95,2.55-2.99,3.64-.51.54-1.19,1.43-1.95,1.55-.43-.47,3.51-4.25,4.03-4.68.29-.25.42-.63.91-.52Z" style="fill: #bfcaa4;"/>
  <path d="M70.06,30.1c-.39.32-.74,1-1.41.93-.31-.3,3.85-4.41,4.68-4.42.11.49-.27.62-.52.91-.79.95-1.8,1.79-2.75,2.58Z" style="fill: #bfcaa4;"/>
  <path d="M43.7,57.28l-5.2,5.2c0-.76,1.03-1.91,1.56-2.47.85-.9,2.5-2.25,3.64-2.73Z" style="fill: #bfcaa4;"/>
  <path d="M77.75,71.83l4.16-4.68c-.7,1.7-2.3,4.22-4.16,4.68Z" style="fill: #bfcaa4;"/>
  <path d="M29.67,66.38l-5.72,6.23c.08-.57.68-1.24,1.04-1.68.56-.67,1.35-1.59,1.94-2.22.32-.35,2.42-2.61,2.73-2.33Z" style="fill: #bfcaa4;"/>
  <path d="M69.43,44.02c-.26-.23,3.94-4.85,4.68-4.94.39.44-3.28,4.01-3.77,4.42-.29.25-.42.63-.91.52Z" style="fill: #bfcaa4;"/>
  <path d="M70.99,58.06c-.91,1.26-1.92,2.78-2.99,3.9-.21.22-1.16,1.31-1.43,1.03l2.2-3.12c.36-.24,1.85-2.14,2.21-1.81Z" style="fill: #bfcaa4;"/>
  <path d="M69.17,75.73c-.45-.45,3.6-4.32,4.15-4.68-.11.82-.89,1.71-1.42,2.34-.26.31-2.45,2.62-2.73,2.33Z" style="fill: #bfcaa4;"/>
  <path d="M58.52,22.46c-.98,1.05-1.8,2.27-2.86,3.25-.51.47-1.42,1.22-2.08,1.42-.25-.24,2.76-3.21,3.12-3.51.26-.22,1.62-1.35,1.82-1.16Z" style="fill: #bfcaa4;"/>
  <path d="M69.43,41.16c1.14-2.18,3.18-3.57,4.94-5.2.18.19-1.2,1.82-1.42,2.08-.69.78-1.81,1.93-2.6,2.6-.29.25-.42.63-.91.52Z" style="fill: #bfcaa4;"/>
  <path d="M76.19,32.07c-.3-.27,4.92-5.49,5.2-5.2.11.49-.27.62-.52.91-.91,1.08-2.69,2.86-3.77,3.77-.29.24-.42.63-.91.52Z" style="fill: #bfcaa4;"/>
  <path d="M54.1,86.65c-.38-1.04,3.93-4.91,4.15-4.68-.21.69-.95,1.54-1.42,2.08-.81.92-1.8,1.8-2.73,2.6Z" style="fill: #bfcaa4;"/>
  <path d="M32.53,27.13c-1.1,1.41-2.29,3.14-3.5,4.42-.37.39-.83,1.05-1.43,1.03-.23-.23,3.12-4.01,3.5-4.42.22-.23,1.15-1.3,1.43-1.03Z" style="fill: #bfcaa4;"/>
  <path d="M16.68,36.75c-.11-.51.11-.7.37-1.05,1.1-1.49,2.92-3.13,4.3-4.41l-2.2,3.12-2.47,2.34Z" style="fill: #bfcaa4;"/>
  <path d="M44.22,23.23c.57-2.24,3.1-3.83,4.67-5.46-.21.71-.94,1.51-1.42,2.08-.98,1.18-2.08,2.38-3.25,3.37Z" style="fill: #bfcaa4;"/>
  <polygon points="32.27 53.38 34.21 50.78 37.2 47.92 34.22 51.83 32.27 53.38" style="fill: #bfcaa4;"/>
  <path d="M38.76,43.25c-1.13,1.19-2.21,2.64-3.37,3.77-.37.36-.74.94-1.31.9-.41-.43,2.29-3.01,2.72-3.38.27-.24,1.74-1.49,1.96-1.29Z" style="fill: #bfcaa4;"/>
  <path d="M61.12,49.48l-2.17,2.51-3.03,2.43c-.11-.49.27-.62.52-.91.74-.88,2.23-2.39,3.12-3.12.24-.2,1.33-1.1,1.56-.9Z" style="fill: #bfcaa4;"/>
  <path d="M30.45,65.34c.14-2.09,2.43-3.43,3.89-4.68.37.42-3.38,4.19-3.89,4.68Z" style="fill: #bfcaa4;"/>
  <path d="M40.85,63.52c.36-2.15,2.6-3.59,4.15-4.94.18.2-.84,1.44-1.04,1.68-.9,1.08-2.08,2.28-3.11,3.26Z" style="fill: #bfcaa4;"/>
  <path d="M72.55,24.02c.23.21-3.96,4.14-4.29,4.42-.29.24-.42.63-.91.52-.11-.49.28-.62.52-.91.69-.83,2.02-2.15,2.86-2.86.26-.22,1.62-1.35,1.82-1.16Z" style="fill: #bfcaa4;"/>
  <path d="M60.6,69.24c-1.25,1.74-2.41,3.64-4.16,4.94.18-1.07,1.35-2.43,2.08-3.24.27-.29,1.76-1.98,2.07-1.69Z" style="fill: #bfcaa4;"/>
  <path d="M77.75,41.43c-1.33,1.79-2.89,3.34-4.68,4.68.17-1.19,1.81-2.57,2.73-3.37.25-.22,1.75-1.48,1.94-1.3Z" style="fill: #bfcaa4;"/>
  <path d="M71.77,47.15c-1.38,1.3-2.67,3.17-4.02,4.41-.28.26-.44.63-.92.52-.44-.44,3.08-3.73,3.55-4.11.38-.31.89-.82,1.39-.83Z" style="fill: #bfcaa4;"/>
  <path d="M38.5,24.28c.22.19-3.45,4.09-3.76,4.42-.27.28-.46.61-.91.51-.42-.41,3.31-4.04,3.77-4.42.29-.25.42-.63.91-.52Z" style="fill: #bfcaa4;"/>
  <path d="M63.19,47.92l-.52-.13c-.04-.24.01-.44.13-.65.7-1.23,3.52-3.22,4.55-4.42-.68,2.17-3.27,3.2-4.16,5.2Z" style="fill: #bfcaa4;"/>
  <path d="M57.48,76.51c.22.2-2.87,3.58-3.25,3.9-.29.24-.42.63-.91.52-.4-.4,2.83-3.55,3.25-3.9.29-.25.42-.63.91-.52Z" style="fill: #bfcaa4;"/>
  <path d="M35.91,42.73c.25.22-3.84,4.69-4.42,4.94.16-.9,1.07-1.9,1.68-2.6.29-.33,2.43-2.6,2.73-2.33Z" style="fill: #bfcaa4;"/>
  <path d="M64.76,74.43c-.57-.62,3.5-4.5,4.15-4.94l-3.12,4.29-1.04.65Z" style="fill: #bfcaa4;"/>
  <polygon points="63.98 84.05 66.69 80.4 68.39 79.11 65.41 83.01 63.98 84.05" style="fill: #bfcaa4;"/>
  <path d="M69.69,68.71c-.45-.45,3.6-4.32,4.15-4.68-.33.97-1.26,2.11-1.94,2.86-.26.29-1.92,2.1-2.21,1.81Z" style="fill: #bfcaa4;"/>
  <path d="M32.27,30.25c-1.38,1.64-2.53,3.88-4.42,4.94-.24-.26,1.88-2.78,2.2-3.12.28-.3,1.9-2.09,2.21-1.81Z" style="fill: #bfcaa4;"/>
  <path d="M42.92,36.49l-5.2,5.2c.44-1.38,2.13-2.94,3.24-3.91.52-.46,1.27-1.14,1.96-1.29Z" style="fill: #bfcaa4;"/>
  <path d="M76.19,40.65c-.55-.63,3.89-4.46,4.67-4.68.29.29-1.41,1.83-1.68,2.09-.91.86-2.08,1.68-2.99,2.59Z" style="fill: #bfcaa4;"/>
  <path d="M44.48,19.08c.22.21-2.88,3.33-3.25,3.64-.29.24-.42.63-.91.52-.33-.33,1.62-2.31,1.94-2.6.24-.23,2.02-1.74,2.22-1.55Z" style="fill: #bfcaa4;"/>
  <path d="M30.18,78.59c-1.21.22.31-1.79.57-2.16.72-1.05,1.68-2.17,2.81-2.77l-3.38,4.94Z" style="fill: #bfcaa4;"/>
  <path d="M80.09,57.8c-.49-.54,3.59-4.23,4.15-4.68-.42.94-1.26,2.11-1.94,2.86-.63.7-1.34,1.44-2.21,1.82Z" style="fill: #bfcaa4;"/>
  <path d="M49.42,18.03c-.62-.63,3.69-3.94,4.15-4.42-.54,1.39-2.1,2.95-3.25,3.9-.29.24-.42.63-.91.52Z" style="fill: #bfcaa4;"/>
  <path d="M78.53,53.9c-.88.88-1.76,2.12-2.63,2.96-.56.54-1.57,1.45-2.31,1.71-.25-.24,4.01-4.78,4.94-4.67Z" style="fill: #bfcaa4;"/>
  <path d="M72.81,80.15c.37-2.08,2.7-3.56,4.15-4.94l-2.6,3.5-1.55,1.44Z" style="fill: #bfcaa4;"/>
  <path d="M27.07,27.91c.71-2.41,3.18-3.81,4.67-5.72-.44,1.05-1.36,2.1-2.08,2.98-.78.95-1.65,1.94-2.59,2.74Z" style="fill: #bfcaa4;"/>
  <path d="M49.68,72.09l2.72-3.65,1.44-1.03c.18.2-.84,1.43-1.04,1.68-.46.57-1.19,1.44-1.68,1.96-.21.23-1.16,1.31-1.43,1.03Z" style="fill: #bfcaa4;"/>
  <path d="M74.89,72.61c-.44-.46,3.59-4.3,4.15-4.68l-2.2,3.12-1.95,1.55Z" style="fill: #bfcaa4;"/>
  <path d="M76.45,52.86c-.27-.22,4.52-4.57,4.94-4.94.18.2-1.56,2.2-1.81,2.48-.38.42-2.66,2.84-3.13,2.46Z" style="fill: #bfcaa4;"/>
  <path d="M59.56,80.15l1.94-2.6,1.95-1.82c-.47,1.09-1.51,2.7-2.34,3.51-.21.21-1.35,1.11-1.56.91Z" style="fill: #bfcaa4;"/>
  <path d="M61.12,29.21c.22.21-3.58,4.26-4.42,4.15-.34-.34,1.58-1.87,1.81-2.21l2.6-1.94Z" style="fill: #bfcaa4;"/>
  <path d="M64.76,43.24c-.49-.53,3.73-4.23,4.41-4.42.11.49-.27.62-.52.91-.32.38-3.72,3.7-3.9,3.51Z" style="fill: #bfcaa4;"/>
  <path d="M54.1,65.08c-1.06,1.09-1.95,2.57-2.99,3.64-.32.33-.64.84-1.17.78-.34-.34,3.17-4.55,4.16-4.41Z" style="fill: #bfcaa4;"/>
  <path d="M35.39,21.93c-.11-.49.28-.62.52-.91,1.21-1.46,2.8-2.72,4.16-4.03-.12.62-.76,1.35-1.16,1.82-.65.76-1.84,1.96-2.6,2.6-.29.24-.42.63-.91.52Z" style="fill: #bfcaa4;"/>
  <path d="M28.2,72.7c.51-.52,1.4-.97,1.86-1.65.19-.04.17.27.13.38-.55,1.35-3.14,2.94-3.77,4.55-.59-.35-.16-.81.08-1.21.3-.5,1.27-1.64,1.7-2.07Z" style="fill: #bfcaa4;"/>
  <path d="M53.06,33.63c-1.18,1.58-2.48,3.09-4.16,4.16-.41-.53,2.01-2.73,2.47-3.11.25-.21,1.48-1.22,1.68-1.04Z" style="fill: #bfcaa4;"/>
  <path d="M22.31,39c-.1.1-.85.66-.69-.04,1.36-1.77,2.99-3.34,4.67-4.81-.16.64-.87,1.44-1.3,1.94-.78.9-1.84,2.05-2.68,2.91Z" style="fill: #bfcaa4;"/>
  <path d="M74.37,70.01c-.39-.42,2.97-4.1,3.63-4.42-.49,1.17-1.48,2.6-2.34,3.5-.2.21-1.02,1.21-1.29.92Z" style="fill: #bfcaa4;"/>
  <path d="M15.11,50.52c-.26-.25,3.48-4.56,4.16-4.68.18.2-.84,1.43-1.04,1.68-.46.57-1.19,1.44-1.68,1.96-.22.23-1.15,1.31-1.43,1.03Z" style="fill: #bfcaa4;"/>
  <path d="M38.25,47.4c.52-2.05,2.65-3.35,4.15-4.68.17.19-1.45,2.08-1.68,2.34-.74.83-1.61,1.63-2.47,2.34Z" style="fill: #bfcaa4;"/>
  <path d="M40.58,52.08c-.44-.46,3.62-4.43,3.89-4.16l-1.94,2.6-1.95,1.55Z" style="fill: #bfcaa4;"/>
  <path d="M45.52,47.4c1.22-1.72,2.7-3.2,4.42-4.42.17.19-1.09,1.7-1.3,1.94-.33.38-2.77,2.79-3.11,2.47Z" style="fill: #bfcaa4;"/>
  <path d="M39.54,64.82c-1.31,1.37-2.58,2.94-4.03,4.16-.29.24-.42.63-.91.52-.26-.24,2.77-3.21,3.12-3.51.48-.41,1.2-1.04,1.82-1.16Z" style="fill: #bfcaa4;"/>
  <path d="M78.79,58.58c-1.07,1.18-1.9,2.76-2.99,3.9-.2.21-.9,1.03-1.17.77.16-.66,3.54-5.23,4.16-4.67Z" style="fill: #bfcaa4;"/>
  <path d="M60.86,32.07c-.11-.49.27-.62.52-.91,1.28-1.52,2.92-2.74,4.42-4.03.11.49-.27.62-.52.91-.34.4-4.17,4.3-4.42,4.03Z" style="fill: #bfcaa4;"/>
  <path d="M74.63,33.37l-4.68,4.68c.74-1.77,2.89-3.93,4.68-4.68Z" style="fill: #bfcaa4;"/>
  <path d="M35.91,53.12c-.19-.21.49-1.04.67-1.27.29-.38,2.95-3.42,3.22-3.14l-2.46,3.38-1.43,1.03Z" style="fill: #bfcaa4;"/>
  <path d="M62.67,70.28c.22.2-3.28,4.23-3.9,4.42,0-.81.9-1.72,1.42-2.34.26-.31,2.17-2.34,2.47-2.07Z" style="fill: #bfcaa4;"/>
  <path d="M32.53,65.59c-.45-.46,3.89-4.7,4.15-4.42.11.49-.27.62-.52.91-.68.81-1.73,1.97-2.47,2.73-.32.33-.64.84-1.17.78Z" style="fill: #bfcaa4;"/>
  <path d="M72.81,68.45c.97-1.84,2.56-3.16,4.16-4.42.18.2-.94,1.57-1.16,1.82-.53.62-1.46,1.55-2.08,2.08-.29.25-.42.63-.91.52Z" style="fill: #bfcaa4;"/>
  <path d="M35.65,75.21c-.34.52-4.66,4.97-4.94,4.68-.11-.49.27-.62.52-.91.6-.71,1.63-1.72,2.34-2.34.54-.48,1.39-1.22,2.08-1.42Z" style="fill: #bfcaa4;"/>
  <path d="M70.39,77.72c-.16.14-.47.27-.69.35-.44-.58,2.9-3.95,3.63-4.42-.45,1.24-1.96,3.2-2.94,4.07Z" style="fill: #bfcaa4;"/>
  <path d="M15.89,40.64c-.07-.83,3.62-4.43,3.9-4.16l-2.2,2.86-1.69,1.29Z" style="fill: #bfcaa4;"/>
  <path d="M52.02,72.87c.25-1.93,2.03-3.2,3.37-4.42-.71,1.64-2.01,3.27-3.37,4.42Z" style="fill: #bfcaa4;"/>
  <path d="M43.7,70.28c-1.22,1.61-2.57,3.14-4.16,4.42-.11-.51.11-.7.37-1.05.33-.44,3.37-3.75,3.78-3.36Z" style="fill: #bfcaa4;"/>
  <path d="M36.43,73.91c-.42-.43,3.49-4.23,4.15-4.42l-2.72,3.38-1.43,1.03Z" style="fill: #bfcaa4;"/>
  <path d="M67.87,45.07c.22.2-3.3,4.3-4.16,4.15-.22-.2,2.89-3.33,3.25-3.64.29-.25.42-.63.91-.52Z" style="fill: #bfcaa4;"/>
  <path d="M79.31,34.15c-1.41,1.53-2.6,3.34-4.42,4.42-.19-.2,1.32-1.98,1.55-2.22.29-.31,2.61-2.44,2.86-2.2Z" style="fill: #bfcaa4;"/>
  <path d="M34.35,25.57c-.11-.49.28-.62.52-.91.31-.38,3.69-3.74,3.9-3.51.11.49-.27.62-.52.91-.72.86-2.13,2.28-2.99,2.99-.29.24-.42.63-.91.52Z" style="fill: #bfcaa4;"/>
  <path d="M45,31.55c.16.16-2.63,3.08-2.99,3.38-.29.24-.42.63-.91.52-.35-.37,1.13-1.8,1.42-2.08.23-.23,2.29-1.99,2.48-1.81Z" style="fill: #bfcaa4;"/>
  <path d="M63.97,23.5c-1.33,1.5-2.71,3.08-4.42,4.16-.49-.56,2.28-2.75,2.73-3.11s1.1-.96,1.68-1.04Z" style="fill: #bfcaa4;"/>
  <path d="M27.33,24.79c.15.13-2.22,2.86-2.47,3.12-.38.39-.83,1.05-1.43,1.03-.39-.4,2.58-3.29,2.99-3.64.29-.25.42-.63.91-.52Z" style="fill: #bfcaa4;"/>
  <path d="M62.41,33.63c-.29-.28,3.9-4.36,4.42-4.68l-2.75,3.61-1.66,1.06Z" style="fill: #bfcaa4;"/>
  <path d="M54.36,32.85c-.16-.93,3.71-4.1,3.89-3.9.11.49-.27.62-.52.91-.61.72-1.75,1.87-2.47,2.47-.29.24-.42.63-.91.52Z" style="fill: #bfcaa4;"/>
  <path d="M44.74,15.96c.18.17-2.88,3.33-3.25,3.64-.29.25-.42.63-.91.52-.12-.11,1.69-2.36,1.94-2.61.22-.22,2.04-1.72,2.22-1.54Z" style="fill: #bfcaa4;"/>
  <path d="M54.36,55.98c-1.58,1.61-3.08,3.48-4.81,4.94-.29.25-.42.63-.91.52,1.22-1.14,2.34-2.79,3.5-3.91.53-.51,1.52-1.3,2.22-1.54Z" style="fill: #bfcaa4;"/>
  <path d="M50.98,38.83c-.11-.49.27-.62.52-.91.32-.38,3.69-3.74,3.9-3.51.11.49-.27.62-.52.91-.31.37-3.66,3.77-3.9,3.51Z" style="fill: #bfcaa4;"/>
  <path d="M18.49,65.34c.62-1.82,2.15-3.48,3.63-4.68-.43,1-1.29,2.27-1.97,3.1-.47.57-1.04,1.17-1.67,1.58Z" style="fill: #bfcaa4;"/>
  <path d="M81.65,53.9c-.25.59-3.69,4.62-4.16,4.15-.11-.49.28-.62.52-.91.66-.79,1.94-2.07,2.73-2.73.29-.25.42-.63.91-.52Z" style="fill: #bfcaa4;"/>
  <path d="M61.89,54.68c-1.19,1.26-2.17,2.78-3.51,3.9-.29.24-.42.63-.91.52-.2-.2,1-1.55,1.21-1.79.59-.65,1.61-1.53,2.29-2.11.29-.25.42-.63.91-.52Z" style="fill: #bfcaa4;"/>
  <path d="M20.57,56.24c.75-1.9,2.62-3.58,4.15-4.94l-2.08,2.98-2.07,1.96Z" style="fill: #bfcaa4;"/>
  <path d="M43.7,42.73c-.45-1.03,3.69-4.64,3.89-4.42.11.49-.27.62-.52.91-1.02,1.22-2.31,2.32-3.38,3.51Z" style="fill: #bfcaa4;"/>
  <path d="M34.6,57.8c.18.18-1.22,1.86-1.42,2.08-.49.54-1.21,1.43-1.95,1.55-.43-.49,2.02-2.75,2.47-3.12.29-.24.42-.63.91-.52Z" style="fill: #bfcaa4;"/>
  <path d="M62.94,79.89c-.36-.36,2.93-3.8,3.63-3.9.31.35-2.32,3.04-2.73,3.38-.29.24-.42.63-.91.52Z" style="fill: #bfcaa4;"/>
  <path d="M71.77,70.02c-1.22,1.76-2.79,3.28-4.42,4.68.51-1.44,2.32-3.16,3.51-4.16.29-.25.42-.63.91-.52Z" style="fill: #bfcaa4;"/>
  <path d="M49.68,66.64c-.8.97-1.61,2.23-2.47,3.12-.21.22-1.16,1.31-1.43,1.03-.02-.48.4-.91.67-1.27s2.83-3.25,3.22-2.88Z" style="fill: #bfcaa4;"/>
  <path d="M44.74,62.48c.11.49-.27.62-.52.91-.9,1.08-2.07,2.04-3.12,2.99-.1-.88.78-1.39,1.16-2.09l2.48-1.81Z" style="fill: #bfcaa4;"/>
  <path d="M33.83,80.67c.66-1.84,2.43-3.4,3.89-4.68-.38.9-1.19,1.99-1.82,2.72s-1.33,1.4-2.07,1.96Z" style="fill: #bfcaa4;"/>
  <path d="M35.13,72.35c-.5-.63,3.7-4.37,3.89-4.16.11.49-.27.62-.52.91-.27.33-3.23,3.43-3.38,3.25Z" style="fill: #bfcaa4;"/>
  <path d="M19.79,66.89c-.21-.21.71-1.33.9-1.56.28-.34,3.09-3.27,3.25-3.12l-3.24,4.16-.91.51Z" style="fill: #bfcaa4;"/>
  <path d="M62.15,27.91c.85-1.8,2.7-2.7,4.16-3.9.11.49-.27.62-.52.91-.36.42-3.28,3.32-3.64,2.99Z" style="fill: #bfcaa4;"/>
  <path d="M80.09,66.63c.9-1.48,2.24-2.91,3.64-3.9.25.3-2.22,3.23-2.58,3.53s-.58.45-1.06.37Z" style="fill: #bfcaa4;"/>
  <path d="M60.33,63.52l-2.09,2.98-1.29,1.18c-.1-.46.14-.72.35-1.08s2.62-3.49,3.03-3.08Z" style="fill: #bfcaa4;"/>
  <path d="M43.7,84.83c-.19-.2.85-1.41,1.05-1.68.85-1.12,1.79-2.32,2.85-3.26-.53,1.52-1.94,3.19-3.06,4.34-.25.26-.25.74-.83.6Z" style="fill: #bfcaa4;"/>
  <path d="M23.95,48.97c-.48.51-3.2,4.75-3.9,4.15.78-1.27,1.85-2.68,2.99-3.64.29-.25.42-.63.91-.52Z" style="fill: #bfcaa4;"/>
  <path d="M39.54,52.86c.2.17-2.67,3.93-3.64,3.63-.25-.23,2.41-2.85,2.73-3.12.29-.25.42-.63.91-.52Z" style="fill: #bfcaa4;"/>
  <path d="M43.18,54.68c.23.21-3.13,3.58-3.51,3.9-.29.25-.42.63-.91.52-.23-.21,3.13-3.58,3.51-3.9.29-.25.42-.63.91-.52Z" style="fill: #bfcaa4;"/>
  <path d="M76.45,58.32c-.95,1.08-1.76,2.6-2.75,3.61-.27.27-.37.66-.88.54-.45-.46,2.27-3.25,2.73-3.64.29-.25.42-.63.91-.52Z" style="fill: #bfcaa4;"/>
  <path d="M61.64,68.45c-.26-.25,2.98-4.25,3.64-4.42-.51,1.13-1.52,2.6-2.34,3.5-.21.23-1,1.2-1.29.92Z" style="fill: #bfcaa4;"/>
  <path d="M15.63,53.64l-.52-.13c0-1,3-3.84,3.9-4.54l-3.38,4.68Z" style="fill: #bfcaa4;"/>
  <path d="M22.13,48.18c-.37-.97,3.43-4.63,3.63-4.42-.17.68-.86,1.38-1.3,1.94-.66.83-1.49,1.83-2.33,2.48Z" style="fill: #bfcaa4;"/>
  <path d="M66.83,32.59c-1.46,1.74-3.13,3.31-4.94,4.68-.11-.49.27-.62.52-.91.54-.65,1.43-1.51,2.08-2.08s1.57-1.39,2.34-1.68Z" style="fill: #bfcaa4;"/>
  <path d="M79.83,30.77c.26.24-2.9,3.34-3.25,3.64-.29.24-.42.63-.91.52-.26-.24,2.9-3.34,3.25-3.64.29-.24.42-.63.91-.52Z" style="fill: #bfcaa4;"/>
  <path d="M83.21,30.25c.47.48-2.85,3.54-3.37,3.9-.11-.51.11-.7.37-1.05s2.68-3.18,3-2.84Z" style="fill: #bfcaa4;"/>
  <path d="M50.72,74.18c-.98,1.15-1.96,2.54-3.01,3.61-.27.28-.38.66-.88.54l1.2-2.05,2.7-2.1Z" style="fill: #bfcaa4;"/>
  <path d="M72.81,77.55c.43-1.91,2.58-3.1,3.89-4.42-.78,1.78-2.48,3.15-3.89,4.42Z" style="fill: #bfcaa4;"/>
  <path d="M35.65,59.62c-.11-.49.28-.62.52-.91.3-.36,3.44-3.47,3.64-3.25.11.49-.27.62-.52.91-.66.79-1.94,2.07-2.73,2.73-.29.24-.42.63-.91.52Z" style="fill: #bfcaa4;"/>
  <path d="M30.71,58.58c-.25-.2,3.09-3.75,3.64-3.9.23.25-2.22,3.19-2.58,3.52l-1.05.38Z" style="fill: #bfcaa4;"/>
  <path d="M30.45,48.19c.11.1-1.47,2.11-1.69,2.34-.23.26-1.67,1.84-1.95,1.55.69-1.23,1.64-2.47,2.73-3.38.29-.24.42-.63.91-.52Z" style="fill: #bfcaa4;"/>
  <path d="M67.61,64.82l-3.51,4.15c-.6-.46-.27-.38-.03-.8.48-.82,1.87-2.2,2.63-2.83.29-.25.42-.63.91-.52Z" style="fill: #bfcaa4;"/>
  <path d="M82.43,41.95c.36.37-2.08,2.79-2.47,3.12-.29.24-.42.63-.91.52-.18-.17,1.48-2.12,1.68-2.34.22-.24,1.42-1.58,1.69-1.29Z" style="fill: #bfcaa4;"/>
  <path d="M51.5,61.7c-.52-.51,3.37-3.64,3.89-3.9.11.49-.27.62-.52.91-.6.72-1.75,1.87-2.47,2.47-.29.24-.42.63-.91.52Z" style="fill: #bfcaa4;"/>
  <path d="M54.62,38.57c-.9,1.47-2.17,2.74-3.64,3.64-.33-.4,1.13-1.8,1.42-2.09.23-.23,2.02-1.73,2.22-1.55Z" style="fill: #bfcaa4;"/>
  <path d="M70.99,79.11c-.31.7-2.91,4.2-3.64,3.63.24-.51,3.21-4.02,3.64-3.63Z" style="fill: #bfcaa4;"/>
  <path d="M82.17,58.58c-1.22,1.61-2.57,3.14-4.16,4.42-.11-.51.11-.7.37-1.05.49-.66,2.19-2.27,2.87-2.85.29-.25.42-.63.91-.52Z" style="fill: #bfcaa4;"/>
  <path d="M30.19,42.46c-.2-.18,2.9-3.91,3.64-3.9.32.35-2.32,3.04-2.73,3.38-.29.25-.42.63-.91.52Z" style="fill: #bfcaa4;"/>
  <path d="M61.89,81.45c-1.43,1.59-2.87,3.26-4.68,4.42-.28-.31,2-2.44,2.33-2.73.62-.55,1.57-1.39,2.34-1.68Z" style="fill: #bfcaa4;"/>
  <path d="M48.12,85.87c.78-1.55,2.27-2.63,3.64-3.64.18.2-1.32,1.98-1.55,2.22-.29.29-1.68,1.75-2.09,1.42Z" style="fill: #bfcaa4;"/>
  <path d="M61.63,34.41c.11.49-.28.62-.52.91-.54.65-1.51,1.7-2.12,2.3-.35.34-.34.56-1,.43-.11-.49.28-.62.52-.91.53-.64,1.57-1.68,2.21-2.21.29-.24.42-.63.91-.52Z" style="fill: #bfcaa4;"/>
  <path d="M48.12,73.91c.11.49-.28.62-.52.91-.6.72-1.75,1.87-2.47,2.47-.29.24-.42.63-.91.52-.25-.23,2.65-3.1,2.99-3.38.29-.24.42-.63.91-.52Z" style="fill: #bfcaa4;"/>
  <path d="M84.51,59.36l2.49-3.09.88-.54c.41.5-2.94,4.05-3.37,3.64Z" style="fill: #bfcaa4;"/>
  <polygon points="21.09 34.15 23.04 31.55 24.99 29.73 22.78 32.85 21.09 34.15" style="fill: #bfcaa4;"/>
  <path d="M36.43,64.56l-4.42,4.42c.12-1.04,1.21-1.91,1.94-2.61.62-.59,1.68-1.48,2.48-1.81Z" style="fill: #bfcaa4;"/>
  <path d="M54.36,19.59c-.11-.49.27-.62.52-.91,1.01-1.2,2.35-2.12,3.64-2.99.27.28-.8,1.21-1.03,1.43-.26.25-2.99,2.61-3.12,2.47Z" style="fill: #bfcaa4;"/>
  <path d="M44.48,50.78c.28.29-2.14,2.58-2.47,2.86-.29.24-.42.63-.91.52.58-1.51,1.89-2.76,3.38-3.37Z" style="fill: #bfcaa4;"/>
  <path d="M58.77,60.14l-.52.91-2.86,2.73c-.06-.66.63-1.5,1.04-1.95.18-.2,2.17-1.86,2.34-1.69Z" style="fill: #bfcaa4;"/>
  <path d="M82.69,36.75c-1.36,1.47-2.68,3.14-4.42,4.16-.28-.3,2.01-2.45,2.33-2.73.54-.48,1.39-1.22,2.08-1.42Z" style="fill: #bfcaa4;"/>
  <path d="M56.18,27.91c-.32.47-3.74,4.32-4.16,3.89.19-.82,1.2-1.65,1.81-2.21.26-.23,2.16-1.86,2.34-1.68Z" style="fill: #bfcaa4;"/>
  <path d="M32.79,18.3c-.16.48-2.96,4.07-3.38,3.63.03-.57.56-1.14.9-1.56.26-.31,2.18-2.34,2.47-2.07Z" style="fill: #bfcaa4;"/>
  <path d="M45.26,25.05c-.6-.77,3.02-3.23,3.63-3.64.38.43-3.12,3.39-3.63,3.64Z" style="fill: #bfcaa4;"/>
  <path d="M25.94,32.5c-.19.17-.95.83-1.21.48,1.18-1.36,2.17-2.95,3.63-4.03-.47,1.12-1.56,2.73-2.43,3.55Z" style="fill: #bfcaa4;"/>
  <path d="M47.08,36.23c.7-1.62,2.16-2.73,3.64-3.64.11.49-.27.62-.52.91-.55.65-1.56,1.66-2.21,2.21-.29.24-.42.63-.91.52Z" style="fill: #bfcaa4;"/>
  <path d="M39.54,33.37c-1.15,1.45-2.4,2.81-3.9,3.9-.35-.43,1.35-2.04,1.68-2.35.24-.23,2.02-1.73,2.22-1.55Z" style="fill: #bfcaa4;"/>
  <path d="M55.66,37.27c-.11-.49.27-.62.52-.91.28-.33,3.14-3.24,3.38-2.99.11.49-.27.62-.52.91-.28.33-3.14,3.24-3.38,2.99Z" style="fill: #bfcaa4;"/>
  <path d="M39.54,36.75c.21.19-2.64,3.09-2.99,3.38-.29.24-.42.63-.91.52-.11-.49.28-.62.52-.91.6-.72,1.75-1.87,2.47-2.47.29-.25.42-.63.91-.52Z" style="fill: #bfcaa4;"/>
  <path d="M30.45,45.84c.64-1.9,2.76-3.28,4.15-4.68l-1.94,2.6-2.21,2.08Z" style="fill: #bfcaa4;"/>
  <path d="M24.99,47.92c-.18-.18,1.21-1.83,1.42-2.08.65-.74,1.44-1.46,2.21-2.08l-2.2,3.12-1.43,1.03Z" style="fill: #bfcaa4;"/>
  <path d="M66.05,55.2c-.25.39-3.21,4.07-3.64,3.63.19-.7.91-1.58,1.42-2.09.22-.22,2.04-1.72,2.22-1.54Z" style="fill: #bfcaa4;"/>
  <path d="M26.55,66.63c-.46-.49,2.84-3.52,3.37-3.9l-1.94,2.86-1.43,1.04Z" style="fill: #bfcaa4;"/>
  <path d="M71.51,63.52c-.43.61-2.9,4.21-3.64,3.63.7-1.12,1.71-2.26,2.73-3.12.29-.25.42-.63.91-.52Z" style="fill: #bfcaa4;"/>
  <path d="M81.39,70.54c-.88,1.42-1.67,2.95-3.12,3.9-.1-.46.14-.72.35-1.08s2.37-3.2,2.77-2.82Z" style="fill: #bfcaa4;"/>
  <path d="M38.76,78.33c.12.11-1.72,2.36-1.95,2.6s-1.41,1.58-1.69,1.29l1.94-2.6,1.69-1.29Z" style="fill: #bfcaa4;"/>
  <path d="M72.03,49.48c-1.04,1.13-2.07,2.39-3.25,3.38-.29.24-.42.63-.91.52-.24-.23,3.29-4.03,4.16-3.89Z" style="fill: #bfcaa4;"/>
  <path d="M22.65,56.76c.21-1.62,1.91-3.12,3.11-4.16-.67,1.52-1.81,3.14-3.11,4.16Z" style="fill: #bfcaa4;"/>
  <path d="M79.57,64.3c-.11-.49.28-.62.52-.91.29-.35,3.23-3.16,3.38-2.99.11.49-.27.62-.52.91-.6.72-1.75,1.87-2.47,2.47-.29.24-.42.63-.91.52Z" style="fill: #bfcaa4;"/>
  <path d="M15.37,44.02c-.48-.5,3.1-3.78,3.63-4.16l-2.75,3.61-.88.54Z" style="fill: #bfcaa4;"/>
  <path d="M41.63,47.66c.27-1.81,2.2-2.72,3.37-3.9.39.44-2.82,3.58-3.37,3.9Z" style="fill: #bfcaa4;"/>
  <path d="M15.9,58.84c.46-1.84,1.95-3.27,3.37-4.42l-2.23,3.36-1.15,1.06Z" style="fill: #bfcaa4;"/>
  <path d="M61.12,17c-1.1,1.31-2.46,2.85-4.16,3.37,1.07-1.35,2.53-2.71,4.16-3.37Z" style="fill: #bfcaa4;"/>
  <path d="M75.41,53.64c-1.12,1.45-2.11,3.07-3.64,4.16.16-.86,1.08-1.94,1.68-2.6.24-.26,1.66-1.84,1.95-1.55Z" style="fill: #bfcaa4;"/>
  <path d="M48.9,82.49c.44.43-3.13,3.26-3.63,3.38-.28-.29,1.29-1.72,1.55-1.95.23-.21,1.9-1.6,2.08-1.42Z" style="fill: #bfcaa4;"/>
  <path d="M60.6,23.5c-1.14,1.44-2.25,2.98-3.9,3.9l1.95-2.6,1.95-1.3Z" style="fill: #bfcaa4;"/>
  <path d="M42.14,24.28c.24.24-2.4,2.84-2.73,3.12-.29.24-.42.63-.91.52l1.13-1.73,2.51-1.91Z" style="fill: #bfcaa4;"/>
  <path d="M20.31,38.3c.75-1.58,2.04-2.81,3.38-3.9-.33.95-1.27,2.14-1.94,2.86-.22.23-1.15,1.31-1.43,1.03Z" style="fill: #bfcaa4;"/>
  <path d="M71.25,19.86c-1.09,1.34-2.32,2.63-3.9,3.38-.27-.28.8-1.22,1.03-1.43.72-.68,1.91-1.61,2.86-1.94Z" style="fill: #bfcaa4;"/>
  <path d="M17.46,63c.33-1.88,2.35-3.17,3.63-4.42-.16.65-.86,1.42-1.3,1.94-.71.84-1.57,1.68-2.33,2.48Z" style="fill: #bfcaa4;"/>
  <path d="M72.29,59.88c.18.16-2.62,3.48-3.12,3.64-.08-.59.2-.98.52-1.43.22-.32,2.31-2.46,2.6-2.21Z" style="fill: #bfcaa4;"/>
  <path d="M23.43,59.1c-.5-.64,2.46-3.09,3.11-3.38.17.19-1.21,1.86-1.42,2.08-.5.52-.99,1.04-1.69,1.3Z" style="fill: #bfcaa4;"/>
  <path d="M83.21,66.11c-.34-.33,2.08-3.39,2.85-3.38l-1.94,2.86-.91.52Z" style="fill: #bfcaa4;"/>
  <path d="M68.39,19.34c-.12.55-2.99,3.5-3.38,3.11-.11-.49.27-.62.52-.91.32-.38,2.49-2.54,2.86-2.21Z" style="fill: #bfcaa4;"/>
  <path d="M73.59,50.78c-.11-.49.28-.62.52-.91.27-.33,2.93-2.93,3.12-2.73.11.49-.27.62-.52.91-.54.65-1.56,1.67-2.21,2.21-.29.24-.42.63-.91.52Z" style="fill: #bfcaa4;"/>
  <path d="M85.55,52.6c.21-1.65,2.26-2.57,3.37-3.64.36.4-2.82,3.43-3.37,3.64Z" style="fill: #bfcaa4;"/>
  <path d="M65.27,59.1c-.94,1.27-1.91,2.68-3.38,3.38l.76-1.44,2.61-1.93Z" style="fill: #bfcaa4;"/>
  <path d="M55.66,21.94c-.99,1.35-2.34,2.35-3.64,3.38-.13-.78.55-1.24,1.03-1.69.63-.6,1.75-1.41,2.6-1.68Z" style="fill: #bfcaa4;"/>
  <path d="M19.79,31.03c.41-1.63,1.88-2.87,3.11-3.9-.6,1.51-1.85,2.92-3.11,3.9Z" style="fill: #bfcaa4;"/>
  <path d="M27.07,21.94c.16.15-2.29,3.26-2.86,3.38-.08-.59.2-.98.52-1.43.21-.3,2.05-2.21,2.34-1.95Z" style="fill: #bfcaa4;"/>
  <path d="M52.8,21.16c-1.02,1.22-2.11,2.52-3.64,3.12-.43-.44,3-3.14,3.64-3.12Z" style="fill: #bfcaa4;"/>
  <path d="M67.35,37.27c-1.13,1.21-2.24,2.57-3.51,3.64-.29.24-.42.63-.91.52-.25-.23,3.14-3.33,3.51-3.64.29-.25.42-.63.91-.52Z" style="fill: #bfcaa4;"/>
  <path d="M64.76,62.48c-.24-.87,3.18-3.84,3.37-3.64.11.49-.27.62-.52.91-.83.99-1.89,1.88-2.86,2.73Z" style="fill: #bfcaa4;"/>
  <path d="M44.22,13.36c.21.19-2.55,3.3-3.12,3.38-.4-.52,1.78-2.5,2.21-2.86.29-.25.42-.63.91-.52Z" style="fill: #bfcaa4;"/>
  <path d="M29.15,46.63c-.31.6-2.44,3.65-3.12,3.11.08-.58,2.77-3.43,3.12-3.11Z" style="fill: #bfcaa4;"/>
  <path d="M56.7,50.52c-.94,1.05-1.91,2.21-2.99,3.12-.29.24-.42.63-.91.52.38-.87,1.12-1.58,1.82-2.21.52-.47,1.41-1.22,2.08-1.42Z" style="fill: #bfcaa4;"/>
  <path d="M70.47,23.24c.22.2-2.42,2.65-2.73,2.86-.4.26-.66.09-.64-.13s3.02-3.05,3.37-2.73Z" style="fill: #bfcaa4;"/>
  <path d="M83.73,38.31c-.31.55-3.46,3.77-3.9,3.37l.87-1.21,3.03-2.17Z" style="fill: #bfcaa4;"/>
  <path d="M21.09,69.49c-.21-.79,2.88-3.88,3.11-3.64-.2.68-.95,1.56-1.42,2.08-.5.55-1.08,1.13-1.69,1.56Z" style="fill: #bfcaa4;"/>
  <path d="M26.03,63.78c-.38-.36,2.47-2.94,2.85-3.12.21.23-1.88,3.44-2.85,3.12Z" style="fill: #bfcaa4;"/>
  <path d="M79.05,26.35c-.85.97-1.74,2.03-2.73,2.86-.29.24-.42.63-.91.52-.24-.23,2.82-3.53,3.64-3.37Z" style="fill: #bfcaa4;"/>
  <path d="M62.93,18.04c-.9,1.14-2.19,2.44-3.64,2.85-.36-.33,3.02-2.88,3.64-2.85Z" style="fill: #bfcaa4;"/>
  <path d="M77.32,50.11c-.07.05-.21.89-.61.41-.25-.3,1.95-2.42,2.33-2.73.32-.26.66-.5,1.04-.64.37.4-2.38,2.67-2.76,2.96Z" style="fill: #bfcaa4;"/>
  <path d="M84.77,42.21c.17.16-2.66,3.83-3.12,3.37l2.2-2.86.91-.51Z" style="fill: #bfcaa4;"/>
  <path d="M86.58,48.96c.33.33-2.7,3.09-3.11,3.38-.06-.54.34-.92.64-1.3.23-.29,2.2-2.35,2.47-2.07Z" style="fill: #bfcaa4;"/>
  <path d="M46.3,43.5c.18-1.45,1.99-2.58,3.11-3.38.32.36-2.67,3.06-3.11,3.38Z" style="fill: #bfcaa4;"/>
  <path d="M25.51,68.2c-.67.9-1.26,1.95-2.02,2.78-.26.28-.27.72-.83.59-.33-.35,2.41-3.81,2.86-3.37Z" style="fill: #bfcaa4;"/>
  <path d="M33.05,21.15c.7-1.47,2.11-2.44,3.38-3.38.11.49-.27.62-.52.91-.28.34-2.56,2.74-2.86,2.47Z" style="fill: #bfcaa4;"/>
  <path d="M40.58,14.14c.33.32-2.42,2.99-2.86,2.6-.02-.67,2.59-2.86,2.86-2.6Z" style="fill: #bfcaa4;"/>
  <path d="M20.83,46.1c-.16-.16,2.28-3.26,2.86-3.38.05.61-2.4,3.82-2.86,3.38Z" style="fill: #bfcaa4;"/>
  <path d="M50.46,26.61c-1.13,1.21-2.24,2.57-3.51,3.64-.29.25-.42.63-.91.52,1.13-1.21,2.24-2.57,3.51-3.64.29-.25.42-.63.91-.52Z" style="fill: #bfcaa4;"/>
  <path d="M49.42,14.4c.17.17-2.98,3.73-3.38,3.37.19-.43,2.96-3.78,3.38-3.37Z" style="fill: #bfcaa4;"/>
  <path d="M57.22,69.76c-.33.33-2.38,3.6-2.86,3.11-.19-.74,2.54-3.4,2.86-3.11Z" style="fill: #bfcaa4;"/>
  <path d="M47.86,32.33c-.26.53-2.98,3.21-3.38,2.85.68-1.27,2.02-2.34,3.38-2.85Z" style="fill: #bfcaa4;"/>
  <path d="M52.8,28.17c.17.16-2.32,3.06-3.12,2.85l.51-.91,2.6-1.94Z" style="fill: #bfcaa4;"/>
  <path d="M85.81,44.29c.16.15-2.3,3.14-3.12,2.85-.16-.14,2.77-3.18,3.12-2.85Z" style="fill: #bfcaa4;"/>
  <path d="M86.33,54.42c.16.15-2.73,3.5-3.12,3.11.08-.58,2.77-3.43,3.12-3.11Z" style="fill: #bfcaa4;"/>
  <path d="M56.44,39.35c-1.11,1.39-2.43,2.63-3.9,3.64l1.03-1.43,2.86-2.2Z" style="fill: #bfcaa4;"/>
  <path d="M38.76,83.53c1.03-1.29,2.02-2.65,3.38-3.64-.2.67-.95,1.56-1.42,2.08-.23.26-1.66,1.83-1.95,1.55Z" style="fill: #bfcaa4;"/>
  <path d="M36.16,32.85c.29.3-2.54,3.14-2.86,2.85.02-.51,2.54-3.19,2.86-2.85Z" style="fill: #bfcaa4;"/>
  <path d="M16.41,61.18c-.18-.18,2.62-3.2,3.12-3.38-.2.66-.96,1.58-1.42,2.08-.23.25-1.41,1.57-1.69,1.29Z" style="fill: #bfcaa4;"/>
  <path d="M83.73,41.16c-.33-.34,1.92-2.85,2.6-2.86.18.19-1.48,2.08-1.71,2.31-.27.28-.38.66-.88.54Z" style="fill: #bfcaa4;"/>
  <path d="M87.36,59.1l-1.95,2.59c-.57-.38-.27-.59.02-1.01.2-.29,1.64-1.86,1.93-1.58Z" style="fill: #bfcaa4;"/>
  <path d="M50.72,86.38c-.22-.22,2.15-2.69,2.6-2.86.03.57-2.21,3.23-2.6,2.86Z" style="fill: #bfcaa4;"/>
  <path d="M88.14,44.8c.24.27-2.04,2.58-2.21,2.59-.22.01-.39-.25-.13-.64.21-.32,2.22-2.08,2.34-1.95Z" style="fill: #bfcaa4;"/>
</svg>