<svg width="46" height="46" viewBox="0 0 46 46" fill="none" xmlns="http://www.w3.org/2000/svg">
  <path d="M0,13.5C0,6.04,6.04,0,13.5,0c7.45,0,13.5,6.04,13.5,13.5,0,3.65-1.48,7.15-4.11,9.7-.46.44-.81.9-1.02,1.39l-1.71,3.98c-.18.41-.58.68-1.03.68.62,0,1.12.5,1.12,1.12s-.5,1.12-1.12,1.12c.62,0,1.12.5,1.12,1.12s-.5,1.12-1.12,1.12l-.5,1.01c-.38.76-1.16,1.24-2.01,1.24h-6.22c-.85,0-1.63-.48-2.01-1.24l-.5-1.01c-.62,0-1.12-.5-1.12-1.12s.5-1.12,1.12-1.12c-.62,0-1.12-.5-1.12-1.12s.5-1.12,1.12-1.12c-.45,0-.86-.27-1.03-.68l-1.71-3.98c-.25-.52-.59-1-1.02-1.39C1.48,20.65,0,17.15,0,13.5M13.5,2.25c-6.21,0-11.25,5.03-11.25,11.25,0,3.05,1.23,5.96,3.42,8.08.59.57,1.16,1.27,1.52,2.12l1.42,3.3h9.77l1.42-3.3c.36-.85.93-1.55,1.52-2.12,4.46-4.32,4.58-11.44.26-15.9-2.12-2.19-5.04-3.42-8.08-3.42" />
</svg>